# xmcd
#
# Track frame offsets:
#	182
#	14785
#	28512
#	38700
#	51897
#	64600
#	77190
#	90822
#	102597
#	114695
#	128442
#	141730
#	154690
#	167280
#	179680
#	191722
#
# Disc length: 2737
#
# Revision: 1
# Processed by: cddbd v1.5.1PL0 Copyright (c) Steve Scherf et al.
# Submitted via: CDex 1.50Beta7
# Normalized: r0:DSETVAR1,TDELIM( - )
#
DISCID=d60aaf10
DTITLE=Various Artist - Cotton Pickin' Blues
DYEAR=1996
DGENRE=Blues
TTITLE0=Blind Willie McTell - Southern Can Is Mine
TTITLE1=Lonnie Johnson - Low Down St Louis Blues
TTITLE2=Robert Johnson - Milkcow's Calf Blues
TTITLE3=Mississippi John Hurt - Ain't No Telling
TTITLE4=Bo Carter - Pig Meat Is What I Crave
TTITLE5=Bukka White - Fixin' to Die Blues
TTITLE6=Blind Willie Johnson - Lord, I Just Can't Keep from Crying
TTITLE7=Leroy Carr - Stormy Night Blues
TTITLE8=Big Bill Broonzy - Spreadin' Snakes Blues
TTITLE9=Leadbelly - Ft Worth and Dallas Blues
TTITLE10=Bessie Smith - Baby Won't You Please Come Home
TTITLE11=Peter Wheatstraw - Sweet Home Blues
TTITLE12=Blind Boy Fuller - Truckin' My Blues Away No 2
TTITLE13=Memphis Minnie - Nothin in Rambling
TTITLE14=Charley Patton - Reverence Man Blues
TTITLE15=Blind Lemon Jefferson - Matchbox Blues
EXTD=YEAR: 1996
EXTT0=
EXTT1=
EXTT2=
EXTT3=
EXTT4=
EXTT5=
EXTT6=
EXTT7=
EXTT8=
EXTT9=
EXTT10=
EXTT11=
EXTT12=
EXTT13=
EXTT14=
EXTT15=
PLAYORDER=
